<svg width="48" height="48" viewBox="0 0 48 48" fill="none" xmlns="http://www.w3.org/2000/svg"><g clip-path="url(#clip0)" fill="#fff"><path d="M47.9984 9.15986C47.9505 5.08596 45.8657 2.84224 42.1278 2.84224C40.6811 2.84224 39.287 3.17899 38.3757 3.45996C38.4664 1.79477 38.4678 0.766898 38.4678 0.715805L38.4679 0.00292969H9.53282V0.715711C9.53282 0.740086 9.53526 1.78418 9.62704 3.4608C8.71579 3.17965 7.32042 2.84224 5.87226 2.84224C2.13445 2.84224 0.0495412 5.08587 0.00172872 9.15986C-0.0453338 13.1677 0.868729 16.7352 2.71832 19.7636C4.53426 22.7369 6.85532 24.5286 8.48273 25.5078C11.0893 27.0764 13.6943 27.4057 15.4208 27.4057C15.8464 27.4057 16.2565 27.3856 16.64 27.346C16.6654 27.3434 16.6889 27.3404 16.7138 27.3377C17.5485 28.2367 18.4484 28.9568 19.41 29.4919C20.1189 29.8863 20.6119 30.5741 20.7809 31.3647C19.8251 31.6622 19.1292 32.5552 19.1292 33.6075C19.1292 34.6835 19.8569 35.5922 20.8457 35.8688V38.8603H16.9887V41.9823H13.1824V47.9979H34.8181V41.9823H31.0119V38.8603H27.1548V35.8688C28.1437 35.5921 28.8715 34.6835 28.8715 33.6075C28.8715 32.5551 28.1756 31.6622 27.2198 31.3647C27.3887 30.5741 27.8817 29.8864 28.5906 29.4919C29.5499 28.9582 30.4559 28.2341 31.2886 27.3381C31.5837 27.3708 32.0261 27.4056 32.5792 27.4056C32.5794 27.4056 32.5793 27.4056 32.5796 27.4056C34.3059 27.4056 36.9108 27.0761 39.5172 25.5077C41.1445 24.5284 43.4656 22.7368 45.2816 19.7636C47.1314 16.7352 48.0454 13.1676 47.9984 9.15986ZM37.0305 1.42849C37.0242 1.68921 37.014 2.01696 36.9985 2.40059H11.0051C10.9889 2.01705 10.9782 1.68884 10.9712 1.42849H37.0305ZM38.0001 7.97346C38.9659 7.65199 40.2177 7.3278 41.339 7.3278C42.2792 7.3278 42.9562 7.55749 43.3512 8.01049C43.8051 8.53118 43.9514 9.40586 43.7859 10.6106C43.0965 15.6286 40.9207 19.5457 37.6589 21.64C36.5228 22.3695 35.2992 22.6709 34.2737 22.778C36.4428 18.2188 37.4926 12.4986 38.0001 7.97346ZM10.7339 12.9387C11.4351 16.6995 12.4032 19.929 13.6114 22.5374C13.6488 22.6184 13.6869 22.6982 13.7248 22.778C12.6997 22.6706 11.4768 22.3693 10.3411 21.6401C7.07948 19.5458 4.90354 15.6288 4.2142 10.6107C4.04873 9.40596 4.19498 8.53118 4.64901 8.01068C5.04398 7.55768 5.72104 7.32808 6.66117 7.32808C7.78345 7.32808 9.03632 7.65274 10.0025 7.9744C10.1751 9.51771 10.4111 11.207 10.7339 12.9387ZM15.4208 25.9801C13.875 25.9801 11.5439 25.6862 9.21792 24.2864C6.83901 22.8549 1.3176 18.5167 1.42729 9.17665C1.4661 5.87355 2.92007 4.2679 5.87226 4.2679C7.4511 4.2679 9.01045 4.74387 9.72323 4.99493C9.75876 5.47315 9.7986 5.95277 9.84267 6.43043C8.87376 6.1458 7.73217 5.90224 6.66117 5.90224C5.29073 5.90224 4.25226 6.29627 3.57445 7.07346C2.83767 7.91843 2.5777 9.17374 2.80176 10.8045C3.18557 13.5984 3.9877 16.0677 5.18592 18.1439C6.32976 20.126 7.8051 21.7059 9.57079 22.8395C11.2954 23.947 13.1608 24.2262 14.4914 24.253C14.4959 24.2608 14.5004 24.2683 14.5049 24.2761C14.5779 24.4039 14.6516 24.5295 14.726 24.6535C14.7492 24.6923 14.7725 24.7307 14.7959 24.769C14.8668 24.8857 14.9384 25.0012 15.0106 25.1143C15.0378 25.1569 15.0654 25.1984 15.0928 25.2406C15.142 25.3163 15.1915 25.3913 15.2414 25.4654C15.2895 25.5371 15.3379 25.6081 15.3866 25.6783C15.4343 25.747 15.4821 25.8154 15.5303 25.8828C15.5529 25.9145 15.5751 25.9474 15.5977 25.9787C15.5403 25.9796 15.4814 25.9801 15.4208 25.9801ZM33.3927 43.408V46.5724H14.6082V43.408H16.9888H31.012H33.3927ZM27.155 40.2861H29.5863V41.9824H18.4144V40.2861H20.8458H27.155ZM22.2714 38.8604V35.9559H25.7294V38.8604H22.2714ZM27.446 33.6075C27.446 34.1163 27.032 34.5302 26.5233 34.5302H21.4775C20.9687 34.5302 20.5548 34.1163 20.5548 33.6075C20.5548 33.0987 20.9687 32.6848 21.4775 32.6848H26.5233C27.0321 32.6848 27.446 33.0987 27.446 33.6075ZM31.0117 25.4584C31.0038 25.4686 30.9959 25.4788 30.9881 25.489C30.9179 25.5798 30.8473 25.6683 30.7762 25.7556C30.7588 25.7769 30.7416 25.7985 30.7241 25.8197C30.646 25.9146 30.5672 26.0074 30.4881 26.098C30.4843 26.1023 30.4807 26.1068 30.4769 26.1111C29.6819 27.0179 28.8142 27.7361 27.8976 28.2461C26.7678 28.8746 25.9996 29.9909 25.7883 31.2592H22.2125C22.0011 29.9908 21.2329 28.8746 20.1031 28.2461C19.2185 27.754 18.4196 27.0962 17.6978 26.3101L17.5234 26.1112C16.8147 25.3029 16.1466 24.3235 15.5379 23.2007L15.3514 22.8566C12.2861 16.9337 11.3589 8.3733 11.0793 3.82615H36.9267C36.9148 4.02396 36.9017 4.22824 36.8873 4.4404C36.8866 4.45024 36.8859 4.46037 36.8852 4.47021C36.8695 4.70008 36.8526 4.93062 36.8347 5.16133C36.8342 5.16808 36.8337 5.17483 36.8332 5.18168C36.7762 5.91293 36.7087 6.6469 36.6317 7.37215L36.5851 7.81071C36.0672 12.454 34.9732 18.3693 32.6663 22.8251L32.4626 23.2006C32.0093 24.0365 31.5231 24.7927 31.0117 25.4584ZM38.7823 24.2864C36.456 25.6863 34.1254 25.9801 32.5798 25.9801C32.5797 25.9801 32.5795 25.9801 32.5794 25.9801C32.5187 25.9801 32.4598 25.9796 32.4023 25.9787C32.4032 25.9774 32.4042 25.976 32.4051 25.9747C32.4976 25.847 32.5888 25.7174 32.6785 25.5861C32.6894 25.57 32.7002 25.5536 32.7112 25.5376C32.787 25.4259 32.8618 25.3126 32.9356 25.1982C32.9547 25.1689 32.9737 25.1395 32.9925 25.1099C33.0743 24.9816 33.1552 24.8524 33.2345 24.721C33.247 24.7004 33.2591 24.6793 33.2714 24.6586C33.3364 24.55 33.4006 24.4405 33.464 24.3298C33.4788 24.304 33.4941 24.2792 33.509 24.2531C34.8396 24.2264 36.7049 23.9471 38.4296 22.8397C40.1953 21.7059 41.6706 20.126 42.8144 18.1441C44.0126 16.0679 44.8147 13.5986 45.1986 10.8047C45.4225 9.17383 45.1626 7.91852 44.4259 7.07365C43.7482 6.29637 42.7096 5.90233 41.3392 5.90233C40.2683 5.90233 39.1265 6.14571 38.1577 6.43043C38.2026 5.9434 38.2411 5.47624 38.2741 5.03224C38.2751 5.01987 38.2761 5.0074 38.277 4.99512C38.99 4.74396 40.5493 4.26809 42.128 4.26809C45.0802 4.26809 46.5342 5.87374 46.5731 9.17665C46.6824 18.5167 41.1612 22.8548 38.7823 24.2864Z"/><path d="M18.0324 23.085L16.8418 23.8694C17.2483 24.4865 17.6852 25.0472 18.1403 25.5359L19.1836 24.5641C18.7826 24.1336 18.3953 23.6359 18.0324 23.085Z"/><path d="M14.9739 15.1807L13.584 15.4977C14.2676 18.4944 15.1803 21.0101 16.2965 22.9749L17.536 22.2706C16.4886 20.427 15.6266 18.0416 14.9739 15.1807Z"/><path d="M41.5934 31.2661L41.5924 29.8404L40.3889 29.8412L40.388 28.6377L38.9624 28.6386L38.9632 29.8422L37.7598 29.843L37.7607 31.2687L38.9642 31.2679L38.965 32.4712L40.3907 32.4703L40.3898 31.2668L41.5934 31.2661Z"/><path d="M10.574 38.6699L10.5725 37.2443L9.56267 37.2453L9.56164 36.2354L8.13598 36.2369L8.13702 37.2467L7.12695 37.2478L7.12855 38.6734L8.13842 38.6724L8.13945 39.6824L9.56511 39.6809L9.56408 38.671L10.574 38.6699Z"/><path d="M5.92492 27.0146H4.58008V28.4403H5.92492V27.0146Z"/><path d="M14.5675 31.2334H13.2227V32.6591H14.5675V31.2334Z"/><path d="M36.2433 35.5225H34.8984V36.9481H36.2433V35.5225Z"/></g><defs><clipPath id="clip0"><path fill="#fff" d="M0 0H48V48H0z"/></clipPath></defs></svg>