<svg width="48" height="48" viewBox="0 0 48 48" fill="none" xmlns="http://www.w3.org/2000/svg"><path d="M45.3326 43.4287C44.0725 43.4287 43.0469 44.4544 43.0469 45.7144C43.0469 46.9745 44.0725 48.0001 45.3326 48.0001C46.5926 48.0001 47.6183 46.9745 47.6183 45.7144C47.6183 44.4544 46.5926 43.4287 45.3326 43.4287ZM45.3326 46.4763C44.9129 46.4763 44.5707 46.1348 44.5707 45.7144C44.5707 45.294 44.9129 44.9525 45.3326 44.9525C45.7522 44.9525 46.0945 45.294 46.0945 45.7144C46.0945 46.1348 45.7522 46.4763 45.3326 46.4763Z" fill="#fff"/><path d="M4.95229 2.28571C4.95229 1.02567 3.92662 0 2.66657 0C1.40653 0 0.380859 1.02567 0.380859 2.28571C0.380859 3.54576 1.40653 4.57143 2.66657 4.57143C3.92662 4.57143 4.95229 3.54576 4.95229 2.28571ZM1.90467 2.28571C1.90467 1.86607 2.24693 1.52381 2.66657 1.52381C3.08622 1.52381 3.42848 1.86607 3.42848 2.28571C3.42848 2.70536 3.08622 3.04762 2.66657 3.04762C2.24693 3.04762 1.90467 2.70536 1.90467 2.28571Z" fill="#fff"/><path d="M41.3123 30.1933L39.8075 27.184C40.1267 26.5363 40.4001 25.8819 40.6248 25.2305L43.8105 24.1683V15.4503L40.6248 14.3882C40.4009 13.7368 40.1267 13.0824 39.8075 12.4347L41.3138 9.42243L35.1497 3.25837L32.1375 4.7647C31.4898 4.4455 30.8354 4.17132 30.184 3.94736L29.1218 0.761719H20.4038L19.3417 3.94736C18.6903 4.17132 18.0359 4.4455 17.3882 4.7647L14.3759 3.25837L8.21187 9.42243L9.71819 12.4347C9.399 13.0824 9.12481 13.7368 8.90086 14.3882L5.71522 15.4503V24.1676L8.90086 25.2294C9.12333 25.8763 9.39379 26.5247 9.71001 27.1672L8.7301 28.9522H4.19141V44.1903H9.52474V41.9046H15.3045L17.5902 44.1903H21.7152V44.9522C21.7152 46.633 23.082 47.9998 24.7628 47.9998C26.4436 47.9998 27.8105 46.633 27.8105 44.9522V44.1903H33.1445C34.4046 44.1903 35.4302 43.1646 35.4302 41.9046C35.4302 41.3172 35.2011 40.7863 34.8361 40.3808C35.2018 39.9753 35.4302 39.4444 35.4302 38.857C35.4302 38.2695 35.2011 37.7387 34.8361 37.3331C35.127 37.0102 35.3257 36.607 35.3953 36.1576L41.3123 30.1933ZM11.2476 26.8294C10.8283 26.0244 10.4864 25.2059 10.2308 24.3983L10.1137 24.0281L7.23903 23.0694V16.5485L10.1137 15.5906L10.2301 15.2197C10.4846 14.4128 10.8268 13.5943 11.2465 12.7892L11.4258 12.444L10.0657 9.7234L14.6762 5.11291L17.3968 6.47303L17.742 6.29409C18.5478 5.87407 19.3655 5.53218 20.1724 5.27734L20.5433 5.1609L21.5028 2.28553H28.0236L28.9816 5.16016L29.3525 5.2766C30.1594 5.53106 30.9779 5.87333 31.7829 6.29297L32.1282 6.47228L34.8488 5.11217L39.4593 9.72266L38.0991 12.4433L38.2781 12.7885C38.6981 13.5943 39.04 14.412 39.2948 15.2189L39.4113 15.5898L42.2866 16.5493V23.0701L39.412 24.0281L39.2948 24.3983C39.0392 25.2059 38.6974 26.0244 38.2781 26.8294L38.0991 27.1747L39.4608 29.8971L34.9585 34.434C34.9198 34.383 34.8785 34.3328 34.8361 34.2855C35.2018 33.88 35.4302 33.3491 35.4302 32.7617C35.4302 31.5731 34.5151 30.6055 33.3547 30.4972C36.5869 27.9068 38.4771 24.0195 38.4771 19.8093C38.4771 12.2476 32.3246 6.09505 24.7628 6.09505C17.2011 6.09505 11.0485 12.2476 11.0485 19.8093C11.0485 23.9686 12.9395 27.8811 16.1494 30.476H9.63225L11.4355 27.1907L11.2476 26.8294ZM33.9064 38.857C33.9064 39.2773 33.5642 39.6189 33.1445 39.6189H27.0485C26.6289 39.6189 26.2866 39.2773 26.2866 38.857C26.2866 38.4366 26.6289 38.0951 27.0485 38.0951H33.1445C33.5642 38.0951 33.9064 38.4366 33.9064 38.857ZM22.9235 19.8093H26.6021L27.8105 18.601V15.2379C28.6509 15.2379 29.3343 15.9213 29.3343 16.7617V20.2558L26.7331 22.857H22.7926L20.1914 20.2558V16.7617C20.1914 15.9213 20.8748 15.2379 21.7152 15.2379V18.601L22.9235 19.8093ZM23.239 24.3808H26.2866V27.4284H23.239V24.3808ZM27.8105 23.9343L30.8581 20.8867V16.7617C30.8581 15.0809 29.4913 13.7141 27.8105 13.7141H26.2866V17.9701L25.9712 18.2855H23.5545L23.239 17.9701V13.7141H21.7152C20.0344 13.7141 18.6676 15.0809 18.6676 16.7617V20.8867L21.7152 23.9343V27.4284H19.8759L19.8279 27.4764C17.2267 25.7978 15.62 22.9202 15.62 19.8093C15.62 14.7677 19.7212 10.6665 24.7628 10.6665C29.8045 10.6665 33.9057 14.7677 33.9057 19.8093C33.9057 22.8975 32.3629 25.7256 29.7807 27.4284H27.8105V23.9343ZM35.4295 19.8093C35.4295 13.9273 30.6449 9.14267 24.7628 9.14267C18.8808 9.14267 14.0962 13.9273 14.0962 19.8093C14.0962 23.3287 15.8469 26.6055 18.7186 28.5858L17.6215 29.6828C14.4574 27.3912 12.5724 23.7234 12.5724 19.8093C12.5724 13.088 18.0415 7.61886 24.7628 7.61886C31.4842 7.61886 36.9533 13.088 36.9533 19.8093C36.9533 23.5746 35.2513 27.0489 32.3454 29.3521C32.2584 28.8119 31.9827 28.3395 31.5865 27.9961C34.0147 25.9801 35.4295 23.0117 35.4295 19.8093ZM33.1445 31.9998C33.5642 31.9998 33.9064 32.3413 33.9064 32.7617C33.9064 33.1821 33.5642 33.5236 33.1445 33.5236H27.0485C26.6289 33.5236 26.2866 33.1821 26.2866 32.7617C26.2866 32.3413 26.6289 31.9998 27.0485 31.9998H33.1445ZM27.0485 36.5712C26.6289 36.5712 26.2866 36.2297 26.2866 35.8093C26.2866 35.389 26.6289 35.0474 27.0485 35.0474H33.1445C33.5642 35.0474 33.9064 35.389 33.9064 35.8093C33.9064 36.2297 33.5642 36.5712 33.1445 36.5712H27.0485ZM8.00093 42.6665H5.71522V30.476H8.00093V42.6665ZM18.2212 42.6665L15.9355 40.3808H9.52474V31.9998H17.4593L20.5069 28.9522H30.0962C30.5158 28.9522 30.8581 29.2937 30.8581 29.7141C30.8581 30.1345 30.5158 30.476 30.0962 30.476H22.1616L18.8908 33.7468L19.9682 34.8242L21.7152 33.0772V42.6665H18.2212ZM24.7628 46.476C23.9224 46.476 23.239 45.7926 23.239 44.9522V31.9998H24.9031C24.8175 32.239 24.7628 32.4935 24.7628 32.7617C24.7628 33.3491 24.992 33.88 25.357 34.2855C24.9913 34.691 24.7628 35.2219 24.7628 35.8093C24.7628 36.3968 24.992 36.9276 25.357 37.3331C24.9913 37.7387 24.7628 38.2695 24.7628 38.857C24.7628 39.4444 24.992 39.9753 25.357 40.3808C24.9913 40.7863 24.7628 41.3172 24.7628 41.9046C24.7628 42.8964 25.402 43.7346 26.2866 44.05V44.9522C26.2866 45.7926 25.6032 46.476 24.7628 46.476ZM33.1445 42.6665H27.0485C26.6289 42.6665 26.2866 42.325 26.2866 41.9046C26.2866 41.4842 26.6289 41.1427 27.0485 41.1427H33.1445C33.5642 41.1427 33.9064 41.4842 33.9064 41.9046C33.9064 42.325 33.5642 42.6665 33.1445 42.6665Z" fill="#fff"/><path d="M1.9043 6.85742H3.42811V8.38123H1.9043V6.85742Z" fill="#fff"/><path d="M1.9043 10.667H3.42811V12.1908H1.9043V10.667Z" fill="#fff"/><path d="M1.9043 14.4766H3.42811V16.0004H1.9043V14.4766Z" fill="#fff"/><path d="M44.5723 32H46.0961V33.5238H44.5723V32Z" fill="#fff"/><path d="M44.5723 35.8096H46.0961V37.3334H44.5723V35.8096Z" fill="#fff"/><path d="M44.5723 39.6191H46.0961V41.1429H44.5723V39.6191Z" fill="#fff"/></svg>