<svg width="15" height="13" viewBox="0 0 15 13" fill="none" xmlns="http://www.w3.org/2000/svg"><path fill-rule="evenodd" clip-rule="evenodd" d="M11.1336 12.8435C12.0123 13.207 12.3418 12.4454 12.3418 12.4454L14.6667 1.4027C14.6484 0.658447 13.5866 1.10846 13.5866 1.10846L0.570923 5.93749C0.570923 5.93749 -0.0514868 6.14519 0.00343172 6.50866C0.0583502 6.87214 0.552617 7.04522 0.552617 7.04522L3.82942 8.08372C3.82942 8.08372 4.81795 11.1473 5.01932 11.7358C5.20238 12.3069 5.36714 12.3243 5.36714 12.3243C5.5502 12.3935 5.71495 12.2723 5.71495 12.2723L7.83847 10.455L11.1336 12.8435ZM11.5752 3.7354C11.5752 3.7354 12.0072 3.50551 11.99 3.7354C11.99 3.7354 12.0591 3.76605 11.8344 3.98062C11.627 4.16453 6.7362 8.05734 6.07948 8.57842C6.02763 8.60908 5.99307 8.65505 5.99307 8.71636L5.80297 10.157C5.7684 10.3103 5.54373 10.3256 5.49189 10.1877L4.67963 7.82745C4.64506 7.73549 4.67963 7.62821 4.78332 7.56691L11.5752 3.7354Z" fill="#fff"/></svg>