<svg width="16" height="16" viewBox="0 0 16 16" fill="none" xmlns="http://www.w3.org/2000/svg">
<path d="M5.55549 7.95743C5.55549 6.61104 6.64961 5.51928 7.99964 5.51928C9.34968 5.51928 10.4444 6.61104 10.4444 7.95743C10.4444 9.30383 9.34968 10.3956 7.99964 10.3956C6.64961 10.3956 5.55549 9.30383 5.55549 7.95743ZM4.23391 7.95743C4.23391 10.0317 5.91983 11.713 7.99964 11.713C10.0795 11.713 11.7654 10.0317 11.7654 7.95743C11.7654 5.88322 10.0795 4.20185 7.99964 4.20185C5.91983 4.20185 4.23391 5.88322 4.23391 7.95743ZM11.0344 4.05293C11.0343 4.22652 11.0859 4.39623 11.1825 4.5406C11.2792 4.68497 11.4166 4.79752 11.5773 4.86401C11.7381 4.9305 11.9151 4.94795 12.0858 4.91416C12.2565 4.88036 12.4134 4.79683 12.5365 4.67414C12.6596 4.55144 12.7435 4.39509 12.7775 4.22485C12.8115 4.05462 12.7942 3.87814 12.7276 3.71774C12.6611 3.55734 12.5483 3.42023 12.4037 3.32373C12.259 3.22723 12.0889 3.17569 11.9148 3.17562H11.9144C11.6811 3.17573 11.4574 3.26818 11.2924 3.43268C11.1274 3.59717 11.0346 3.82026 11.0344 4.05293ZM5.03686 13.9108C4.32186 13.8783 3.93323 13.7595 3.67497 13.6592C3.33258 13.5262 3.08828 13.3679 2.83143 13.1121C2.57458 12.8563 2.41558 12.6129 2.28287 12.2714C2.1822 12.0139 2.0631 11.6263 2.0306 10.9132C1.99504 10.1422 1.98795 9.91065 1.98795 7.95749C1.98795 6.00434 1.99563 5.77339 2.0306 5.00181C2.06316 4.28873 2.18314 3.9018 2.28287 3.64359C2.41617 3.30212 2.57493 3.05848 2.83143 2.80232C3.08793 2.54616 3.33199 2.38759 3.67497 2.25524C3.93312 2.15484 4.32186 2.03606 5.03686 2.00364C5.80988 1.96819 6.04209 1.96111 7.99964 1.96111C9.95719 1.96111 10.1896 1.96877 10.9633 2.00364C11.6783 2.03612 12.0663 2.15577 12.3252 2.25524C12.6676 2.38759 12.9119 2.54651 13.1687 2.80232C13.4256 3.05813 13.584 3.30212 13.7173 3.64359C13.818 3.90104 13.9371 4.28873 13.9696 5.00181C14.0051 5.77339 14.0122 6.00434 14.0122 7.95749C14.0122 9.91065 14.0051 10.1416 13.9696 10.9132C13.937 11.6263 13.8173 12.0138 13.7173 12.2714C13.584 12.6129 13.4252 12.8565 13.1687 13.1121C12.9122 13.3677 12.6676 13.5262 12.3252 13.6592C12.067 13.7596 11.6783 13.8783 10.9633 13.9108C10.1903 13.9462 9.95807 13.9533 7.99964 13.9533C6.04121 13.9533 5.80965 13.9462 5.03686 13.9108ZM4.97613 0.687848C4.19543 0.723305 3.66195 0.846764 3.19606 1.02756C2.71356 1.21427 2.30511 1.46476 1.89695 1.87117C1.48879 2.27759 1.23827 2.68559 1.05106 3.16678C0.869773 3.63171 0.745981 4.16346 0.710428 4.94207C0.674288 5.7219 0.666016 5.97122 0.666016 7.95743C0.666016 9.94365 0.674288 10.193 0.710428 10.9728C0.745981 11.7515 0.869773 12.2832 1.05106 12.7481C1.23827 13.229 1.48885 13.6375 1.89695 14.0437C2.30505 14.4499 2.71356 14.7001 3.19606 14.8873C3.66283 15.0681 4.19543 15.1916 4.97613 15.227C5.75849 15.2625 6.00806 15.2713 7.99964 15.2713C9.99122 15.2713 10.2412 15.2631 11.0232 15.227C11.8039 15.1916 12.337 15.0681 12.8032 14.8873C13.2854 14.7001 13.6942 14.4501 14.1023 14.0437C14.5105 13.6373 14.7605 13.229 14.9482 12.7481C15.1295 12.2832 15.2539 11.7514 15.2889 10.9728C15.3244 10.1924 15.3327 9.94365 15.3327 7.95743C15.3327 5.97122 15.3244 5.7219 15.2889 4.94207C15.2533 4.1634 15.1295 3.63142 14.9482 3.16678C14.7605 2.68588 14.5098 2.27824 14.1023 1.87117C13.6948 1.46411 13.2854 1.21427 12.8038 1.02756C12.337 0.846764 11.8039 0.72272 11.0237 0.687848C10.2418 0.65239 9.99181 0.643555 8.00023 0.643555C6.00865 0.643555 5.75849 0.651805 4.97613 0.687848Z" fill="white"/>
</svg>
