<svg width="8" height="14" viewBox="0 0 8 14" fill="none" xmlns="http://www.w3.org/2000/svg">
<path d="M3.9999 2.31998C4.81378 2.31998 5.4758 2.95737 5.4758 3.74096C5.4758 4.52389 4.81361 5.16128 3.9999 5.16128C3.18654 5.16128 2.52434 4.52389 2.52434 3.74096C2.52417 2.9572 3.18671 2.31998 3.9999 2.31998ZM3.9999 7.17168C5.96583 7.17168 7.56458 5.63292 7.56458 3.74096C7.56458 1.84802 5.966 0.308594 3.9999 0.308594C2.03414 0.308594 0.435223 1.84818 0.435223 3.74096C0.435223 5.63292 2.03414 7.17168 3.9999 7.17168ZM5.44202 9.97109C6.17533 9.8103 6.87513 9.53132 7.51186 9.14594C7.74626 9.00395 7.91248 8.77812 7.97395 8.51814C8.03542 8.25815 7.9871 7.98531 7.83963 7.75962C7.76669 7.64776 7.67157 7.55085 7.55969 7.47441C7.44782 7.39798 7.3214 7.34352 7.18765 7.31417C7.0539 7.28481 6.91545 7.28113 6.78023 7.30333C6.645 7.32554 6.51564 7.37318 6.39956 7.44356C4.93919 8.32752 3.05959 8.32686 1.60041 7.44356C1.48435 7.37317 1.35501 7.3255 1.21979 7.30329C1.08457 7.28108 0.946132 7.28476 0.812392 7.31412C0.678652 7.34347 0.552237 7.39793 0.440381 7.47438C0.328525 7.55082 0.233423 7.64775 0.160518 7.75962C0.0129973 7.98525 -0.0353992 8.25805 0.0259717 8.51803C0.0873427 8.77801 0.253455 9.00387 0.487775 9.14594C1.12445 9.53118 1.82412 9.81015 2.55727 9.97109L0.564556 11.89C0.368726 12.0786 0.258737 12.3344 0.258785 12.6011C0.258833 12.8678 0.368914 13.1235 0.564811 13.312C0.760709 13.5006 1.02638 13.6065 1.30337 13.6064C1.58036 13.6064 1.84599 13.5004 2.04182 13.3118L3.99956 11.4266L5.9585 13.312C6.05536 13.4053 6.17039 13.4794 6.29701 13.53C6.42363 13.5805 6.55937 13.6066 6.69645 13.6066C6.83352 13.6066 6.96926 13.5805 7.09588 13.53C7.22251 13.4794 7.33754 13.4053 7.4344 13.312C7.53154 13.2187 7.60861 13.1079 7.6612 12.986C7.71379 12.864 7.74086 12.7332 7.74086 12.6011C7.74086 12.4691 7.71379 12.3383 7.6612 12.2163C7.60861 12.0943 7.53154 11.9836 7.4344 11.8903L5.44202 9.97109Z" fill="white"/>
</svg>
