<svg width="48" height="48" viewBox="0 0 48 48" fill="none" xmlns="http://www.w3.org/2000/svg">
<g clip-path="url(#clip0)">
<path d="M11.6138 20.1294V18.581C7.77155 18.581 4.64604 15.4555 4.64604 11.6133H3.09766C3.09766 16.3087 6.91835 20.1294 11.6138 20.1294Z" fill="white"/>
<path d="M11.6127 17.0321C14.6002 17.0321 17.0321 14.6002 17.0321 11.6127C17.0321 8.62519 14.6002 6.19336 11.6127 6.19336C8.62519 6.19336 6.19336 8.62519 6.19336 11.6127C6.19336 14.6002 8.62519 17.0321 11.6127 17.0321ZM11.6127 7.74175C13.747 7.74175 15.4837 9.47839 15.4837 11.6127C15.4837 13.747 13.747 15.4837 11.6127 15.4837C9.47839 15.4837 7.74175 13.747 7.74175 11.6127C7.74175 9.47839 9.47839 7.74175 11.6127 7.74175Z" fill="white"/>
<path d="M11.6136 13.9352C12.894 13.9352 13.9362 12.893 13.9362 11.6126C13.9362 10.3323 12.894 9.29004 11.6136 9.29004C10.3332 9.29004 9.29102 10.3323 9.29102 11.6126C9.29102 12.893 10.3332 13.9352 11.6136 13.9352ZM11.6136 10.8384C12.0408 10.8384 12.3878 11.1855 12.3878 11.6126C12.3878 12.0398 12.0408 12.3868 11.6136 12.3868C11.1864 12.3868 10.8394 12.0398 10.8394 11.6126C10.8394 11.1855 11.1864 10.8384 11.6136 10.8384Z" fill="white"/>
<path d="M48 36.9367V31.1923L45.905 30.4616C45.6699 29.6889 45.3621 28.9442 44.9853 28.238L45.95 26.2421L45.2022 25.4943C44.856 25.0396 44.2878 24.4396 43.858 24.0053C43.3231 23.4643 42.7061 22.8773 42.2873 22.5106L37.1363 18.006L37.5786 16.6799L39.3708 17.5766L42.35 14.5974L41.4534 12.8052L43.3548 12.1712V7.95854L41.4534 7.32535L42.35 5.53314L39.3708 2.55393L37.5786 3.4506L36.9454 1.54839H32.7327L32.0995 3.44985L30.3073 2.55318L27.3281 5.53238L28.2248 7.3246L26.3226 7.95779V8.54864L19.9502 2.97618C17.7569 1.05696 14.9444 0 12.0295 0V0.0207914C11.89 0.0162551 11.7539 0 11.6129 0C5.20955 0 0 5.20955 0 11.6129C0 11.7539 0.0162551 11.89 0.0207914 12.0295H0C0 14.9444 1.05696 17.7562 2.97618 19.9495L8.55242 26.3226H7.95779L7.3246 28.224L5.53238 27.3274L2.55318 30.3066L3.44985 32.0988L1.54839 32.732V36.9447L3.44985 37.5779L2.55318 39.3701L5.53238 42.3493L7.3246 41.4526L7.95779 43.3548H12.1705L12.8037 41.4534L14.5959 42.35L17.5751 39.3708L16.6784 37.5786L18.0132 37.1341L22.5072 42.2703C22.8595 42.6721 23.3876 43.2316 23.8847 43.7325C24.3553 44.2058 25.0033 44.8295 25.4894 45.2004L26.2398 45.9507L28.2358 44.986C28.9415 45.3621 29.6866 45.6706 30.4589 45.9057L31.1923 48H36.9367L37.6675 45.905C38.4401 45.6699 39.1849 45.3621 39.891 44.9853L41.887 45.95L45.95 41.887L44.9853 39.891C45.3614 39.1849 45.6699 38.4401 45.905 37.6675L48 36.9367ZM23.1438 28.238C22.7676 28.9442 22.4592 29.6889 22.224 30.4616L20.129 31.1923V36.9367L22.224 37.6675C22.4592 38.4401 22.7669 39.1849 23.1438 39.891L22.909 40.3764L7.10232 22.3136C8.48967 22.9007 10.0142 23.2258 11.6129 23.2258C18.0163 23.2258 23.2258 18.0163 23.2258 11.6129C23.2258 10.0127 22.9007 8.4874 22.3129 7.09929L40.3866 22.9045L39.8918 23.1438C39.186 22.7676 38.4409 22.4592 37.6682 22.224L36.9367 20.129H31.1923L30.4616 22.224C29.6889 22.4592 28.9442 22.7669 28.238 23.1438L26.2421 22.1791L22.1791 26.2421L23.1438 28.238ZM27.871 9.07447L29.6484 8.48211L29.7785 8.13924C29.8167 8.03906 29.856 7.94229 29.8979 7.84627L30.048 7.51134L29.2111 5.83745L30.6116 4.43687L32.2855 5.27382L32.6205 5.12374C32.7165 5.08102 32.8133 5.04246 32.9134 5.00428L33.2563 4.87424L33.8487 3.09677H35.8295L36.4219 4.87424L36.7647 5.00428C36.8649 5.04246 36.9617 5.08178 37.0577 5.12374L37.3926 5.27382L39.0665 4.43687L40.4671 5.83745L39.6302 7.51134L39.7802 7.84627C39.823 7.94229 39.8615 8.03906 39.8997 8.13924L40.0297 8.48211L41.8064 9.07447V11.0553L40.029 11.6477L39.8989 11.9905C39.8608 12.0907 39.8214 12.1875 39.7795 12.2835L39.6294 12.6184L40.4664 14.2923L39.0658 15.6929L37.3919 14.856L37.057 15.006C36.9609 15.0488 36.8642 15.0873 36.764 15.1255L36.4211 15.2555L35.873 16.9015L27.871 9.90272V9.07447ZM11.6129 1.54839C17.1623 1.54839 21.6774 6.06351 21.6774 11.6129C21.6774 17.1623 17.1623 21.6774 11.6129 21.6774C6.06351 21.6774 1.54839 17.1623 1.54839 11.6129C1.54839 6.06351 6.06351 1.54839 11.6129 1.54839ZM15.2548 36.4211L15.1247 36.764C15.0866 36.8642 15.0473 36.9609 15.0053 37.057L14.8552 37.3919L15.6922 39.0658L14.2916 40.4664L12.6177 39.6294L12.2828 39.7795C12.1867 39.8222 12.09 39.8608 11.9898 39.8989L11.6469 40.029L11.0546 41.8064H9.07371L8.48135 40.029L8.13848 39.8989C8.03831 39.8608 7.94153 39.8214 7.84551 39.7795L7.51058 39.6294L5.83745 40.4664L4.43687 39.0658L5.27382 37.3919L5.12374 37.057C5.08102 36.9609 5.04246 36.8642 5.00428 36.764L4.87424 36.4211L3.09677 35.8288V33.8479L4.87424 33.2555L5.00428 32.9127C5.04246 32.8125 5.08178 32.7157 5.12374 32.6197L5.27382 32.2848L4.43687 30.6116L5.83745 29.2111L7.51134 30.048L7.84627 29.8979C7.94229 29.8552 8.03906 29.8167 8.13924 29.7785L8.48211 29.6484L9.07447 27.871H9.90801L16.9083 35.8707L15.2548 36.4211ZM44.6292 36.4729L44.5229 36.8687C44.2768 37.7884 43.9139 38.6662 43.444 39.4786L43.238 39.8339L44.0765 41.5694L41.5694 44.0765L39.8339 43.238L39.4786 43.444C38.6662 43.9132 37.7877 44.2761 36.8687 44.5229L36.4729 44.6292L35.8374 46.4516H32.2916L31.6561 44.6292L31.2603 44.5229C30.3406 44.2768 29.4628 43.9139 28.6505 43.444L28.2951 43.238L26.5596 44.0765L24.0525 41.5694L24.891 39.8339L24.685 39.4786C24.2159 38.6662 23.8529 37.7877 23.6061 36.8687L23.4999 36.4729L21.6774 35.8374V32.2916L23.4999 31.6561L23.6061 31.2603C23.8522 30.3406 24.2151 29.4628 24.685 28.6505L24.891 28.2951L24.0525 26.5596L26.5596 24.0525L28.2951 24.891L28.6505 24.685C29.4628 24.2159 30.3414 23.8529 31.2603 23.6061L31.6561 23.4999L32.2916 21.6774H35.8374L36.4729 23.4999L36.8687 23.6061C37.7884 23.8522 38.6662 24.2151 39.4786 24.685L39.8339 24.891L41.5694 24.0525L44.0765 26.5596L43.238 28.2951L43.444 28.6505C43.9132 29.4628 44.2761 30.3414 44.5229 31.2603L44.6292 31.6561L46.4516 32.2916V35.8374L44.6292 36.4729Z" fill="white"/>
<path d="M34.0642 26.3223C29.7952 26.3223 26.3223 29.7952 26.3223 34.0642C26.3223 38.3332 29.7952 41.8061 34.0642 41.8061C38.3332 41.8061 41.8061 38.3332 41.8061 34.0642C41.8061 29.7952 38.3332 26.3223 34.0642 26.3223ZM34.0642 40.2577C30.6491 40.2577 27.8707 37.4793 27.8707 34.0642C27.8707 30.6491 30.6491 27.8707 34.0642 27.8707C37.4793 27.8707 40.2577 30.6491 40.2577 34.0642C40.2577 37.4793 37.4793 40.2577 34.0642 40.2577Z" fill="white"/>
<path d="M34.0651 29.4189C31.5032 29.4189 29.4199 31.5022 29.4199 34.0641C29.4199 36.626 31.5032 38.7093 34.0651 38.7093C36.627 38.7093 38.7102 36.626 38.7102 34.0641C38.7102 31.5022 36.627 29.4189 34.0651 29.4189ZM34.0651 37.1609C32.3572 37.1609 30.9683 35.772 30.9683 34.0641C30.9683 32.3562 32.3572 30.9673 34.0651 30.9673C35.773 30.9673 37.1619 32.3562 37.1619 34.0641C37.1619 35.772 35.773 37.1609 34.0651 37.1609Z" fill="white"/>
<path d="M38.7087 10.0643C38.7087 7.93 36.9721 6.19336 34.8378 6.19336C32.7034 6.19336 30.9668 7.93 30.9668 10.0643C30.9668 12.1987 32.7034 13.9353 34.8378 13.9353C36.9721 13.9353 38.7087 12.1987 38.7087 10.0643ZM32.5152 10.0643C32.5152 8.78396 33.5574 7.74175 34.8378 7.74175C36.1181 7.74175 37.1603 8.78396 37.1603 10.0643C37.1603 11.3447 36.1181 12.3869 34.8378 12.3869C33.5574 12.3869 32.5152 11.3447 32.5152 10.0643Z" fill="white"/>
<path d="M6.19336 34.8387C6.19336 36.9731 7.93 38.7097 10.0643 38.7097C12.1987 38.7097 13.9353 36.9731 13.9353 34.8387C13.9353 32.7044 12.1987 30.9678 10.0643 30.9678C7.93 30.9678 6.19336 32.7044 6.19336 34.8387ZM12.3869 34.8387C12.3869 36.1191 11.3447 37.1613 10.0643 37.1613C8.78396 37.1613 7.74175 36.1191 7.74175 34.8387C7.74175 33.5584 8.78396 32.5162 10.0643 32.5162C11.3447 32.5162 12.3869 33.5584 12.3869 34.8387Z" fill="white"/>
</g>
<defs>
<clipPath id="clip0">
<rect width="48" height="48" fill="white"/>
</clipPath>
</defs>
</svg>
