<svg width="48" height="48" viewBox="0 0 48 48" fill="none" xmlns="http://www.w3.org/2000/svg">
<path d="M43.3545 13.9355H41.8061V7.74194H40.2577V4.64516H36.3867V0H34.8383V4.64516H30.9674V7.74194H29.419V13.9355H27.8706V24.7742H26.3222V20.129H24.7738V17.0323H22.4512V13.1613H20.9028V17.0323H18.5803V20.129H17.0319V24.7742H13.9351V46.4516H12.3867V48H44.9028V46.4516H43.3545V13.9355ZM32.5158 6.19355H38.7093V7.74194H32.5158V6.19355ZM30.9674 9.29032H40.2577V13.9355H38.7093V10.8387H37.1609V13.9355H34.0641V10.8387H32.5158V13.9355H30.9674V9.29032ZM41.8061 15.4839V46.4516H39.4835V38.7097H31.7416V46.4516H29.419V15.4839H41.8061ZM37.9351 46.4516H33.2899V40.2581H37.9351V46.4516ZM20.1287 18.5806H23.2254V20.129H20.1287V18.5806ZM18.5803 21.6774H24.7738V24.7742H22.4512V23.2258H20.9028V24.7742H18.5803V21.6774ZM15.4835 26.3226H27.8706V46.4516H26.3222V27.871H24.7738V46.4516H22.4512V27.871H20.9028V46.4516H18.5803V27.871H17.0319V46.4516H15.4835V26.3226Z" fill="white"/>
<path d="M30.9668 17.0322H32.5152V18.5806H30.9668V17.0322Z" fill="white"/>
<path d="M34.8379 17.0322H36.3863V18.5806H34.8379V17.0322Z" fill="white"/>
<path d="M38.709 17.0322H40.2574V18.5806H38.709V17.0322Z" fill="white"/>
<path d="M30.9668 21.6777H32.5152V23.2261H30.9668V21.6777Z" fill="white"/>
<path d="M34.8379 21.6777H36.3863V23.2261H34.8379V21.6777Z" fill="white"/>
<path d="M38.709 21.6777H40.2574V23.2261H38.709V21.6777Z" fill="white"/>
<path d="M30.9668 26.3223H32.5152V27.8707H30.9668V26.3223Z" fill="white"/>
<path d="M34.8379 26.3223H36.3863V27.8707H34.8379V26.3223Z" fill="white"/>
<path d="M38.709 26.3223H40.2574V27.8707H38.709V26.3223Z" fill="white"/>
<path d="M30.9668 30.9678H32.5152V32.5162H30.9668V30.9678Z" fill="white"/>
<path d="M34.8379 30.9678H36.3863V32.5162H34.8379V30.9678Z" fill="white"/>
<path d="M38.709 30.9678H40.2574V32.5162H38.709V30.9678Z" fill="white"/>
<path d="M30.9668 35.6133H32.5152V37.1617H30.9668V35.6133Z" fill="white"/>
<path d="M34.8379 35.6133H36.3863V37.1617H34.8379V35.6133Z" fill="white"/>
<path d="M38.709 35.6133H40.2574V37.1617H38.709V35.6133Z" fill="white"/>
<path d="M0 23.2256H1.54839V24.774H0V23.2256Z" fill="white"/>
<path d="M0 26.3223H1.54839V35.6126H0V26.3223Z" fill="white"/>
<path d="M4.64453 28.6455H6.19292V30.1939H4.64453V28.6455Z" fill="white"/>
<path d="M4.64453 31.7422H6.19292V41.0325H4.64453V31.7422Z" fill="white"/>
<path d="M9.29102 23.2256H10.8394V24.774H9.29102V23.2256Z" fill="white"/>
<path d="M9.29102 26.3223H10.8394V35.6126H9.29102V26.3223Z" fill="white"/>
<path d="M46.4512 46.4512H47.9996V47.9996H46.4512V46.4512Z" fill="white"/>
<path d="M9.29102 46.4512H10.8394V47.9996H9.29102V46.4512Z" fill="white"/>
</svg>
